<?xml version="1.0" encoding="utf-8"?>
<!-- Generator: Adobe Illustrator 24.1.1, SVG Export Plug-In . SVG Version: 6.00 Build 0)  -->
<svg version="1.1" id="Layer_1" xmlns="http://www.w3.org/2000/svg" xmlns:xlink="http://www.w3.org/1999/xlink" x="0px" y="0px"
	 viewBox="0 0 595.28 841.89" style="enable-background:new 0 0 595.28 841.89;" xml:space="preserve">
<g>
	<path d="M145.14,307.55v2.94c-2.64,2.53-4.89,4.57-6.74,6.12c-1.85,1.55-3.69,2.94-5.53,4.18c-1.84,1.24-3.36,2.12-4.57,2.65
		c-1.21,0.53-2.25,0.79-3.11,0.79c-2.06,0-3.74-0.78-5.05-2.35c-1.31-1.56-1.96-3.58-1.96-6.06c0-2.84,0.56-5.66,1.69-8.45
		c1.13-2.79,2.73-5.67,4.82-8.64c2.09-2.97,4.7-6.31,7.84-10c2.34-2.73,3.5-4.27,3.5-4.61c0-0.2-0.07-0.37-0.21-0.51
		c-0.14-0.14-0.29-0.21-0.46-0.21c-0.53,0-2.16,1.19-4.88,3.58s-6.22,5.9-10.49,10.54c-4.27,4.64-8.88,10.15-13.83,16.55
		c-0.28,0.34-1.16,1.5-2.65,3.48c-1.49,1.98-2.54,3.26-3.15,3.86c-0.61,0.6-1.14,0.9-1.59,0.9c-0.78,0-1.45-0.8-2.02-2.41
		c-0.57-1.61-0.85-3.32-0.85-5.14c0-1.11,0.35-2.3,1.06-3.58c0.71-1.28,2.25-3.58,4.63-6.89c2.38-3.31,4.35-6.11,5.9-8.38
		c1.56-2.27,3.27-5.03,5.13-8.28c1.31-2.25,2.27-4.04,2.9-5.37c0.63-1.34,0.94-2.52,0.94-3.54c0-0.88-0.25-1.32-0.75-1.32
		c-1.06,0-3.05,1.44-5.97,4.33c-2.92,2.89-6.53,7.17-10.83,12.86c-4.3,5.69-8.78,12.27-13.46,19.75c-1.53,2.56-2.62,4.28-3.25,5.16
		c-0.64,0.88-1.35,1.32-2.13,1.32c-0.97,0-1.88-1.06-2.73-3.18c-0.85-2.12-1.27-3.83-1.27-5.14c0-0.43,0.17-0.9,0.5-1.41
		c3.67-5,6.69-9.26,9.05-12.75c2.36-3.5,4.46-6.82,6.3-9.96c1.84-3.14,3.17-5.73,4.01-7.76c0.83-2.03,1.25-3.63,1.25-4.8
		c0-1.22-0.54-1.83-1.63-1.83c-0.89,0-2.41,0.58-4.55,1.75c-2.14,1.17-4.85,2.76-8.12,4.78c-3.27,2.02-5.89,3.56-7.87,4.63
		c-1.98,1.07-3.45,1.6-4.42,1.6c-0.92,0-1.38-0.53-1.38-1.58c0-0.6,0.2-1.97,0.58-4.12c0.39-2.15,0.79-3.66,1.21-4.54
		c0.58-1.14,2.08-2.65,4.49-4.52c2.41-1.88,3.73-2.82,3.98-2.82c0.22,0,0.33,0.1,0.33,0.3c0,0.11-0.11,0.28-0.33,0.51
		c-1.14,0.94-1.99,1.71-2.54,2.3c-0.56,0.6-0.9,1.25-1.04,1.96c5.09-3.13,9.64-5.51,13.66-7.15c4.02-1.63,6.81-2.45,8.37-2.45
		c0.78,0,1.52,0.53,2.21,1.6c0.69,1.07,1.29,2.3,1.77,3.71c0.49,1.41,0.73,2.31,0.73,2.71c0,1.45-0.36,3.16-1.08,5.14
		c-0.72,1.98-1.7,4.27-2.94,6.89c-1.24,2.62-2.77,5.89-4.61,9.81c1.45-1.9,2.82-3.67,4.13-5.29c1.31-1.62,2.61-3.2,3.9-4.73
		s2.61-3.09,3.94-4.65c1.81-2.13,3.84-4.17,6.09-6.12c2.25-1.95,4.36-3.54,6.32-4.78c1.96-1.24,3.29-1.86,3.98-1.86
		c0.97,0,1.84,0.55,2.61,1.64c0.76,1.09,1.15,2.27,1.15,3.52c0,0.83-0.53,2.4-1.59,4.73c-1.06,2.33-2.6,5.32-4.63,8.96
		c-2.03,3.64-4.71,8.33-8.05,14.08c3.17-3.44,6.47-6.98,9.89-10.62c3.42-3.64,5.97-6.3,7.64-7.98c1.67-1.68,3.06-2.96,4.17-3.84
		c1.53-1.19,3.07-2.48,4.61-3.86c1.54-1.38,2.76-2.47,3.65-3.26c0.89-0.8,1.68-1.41,2.38-1.83c0.69-0.43,1.33-0.64,1.92-0.64
		c0.72,0,1.63,0.85,2.73,2.56c1.1,1.71,1.65,2.8,1.65,3.28c0,0.6-0.33,1.31-0.98,2.13c-0.65,0.83-2.01,2.36-4.07,4.61
		c-3.78,4.15-7.07,8.34-9.85,12.56c-2.78,4.22-4.89,8.08-6.32,11.56c-1.43,3.48-2.15,6.23-2.15,8.25c0,1.25,0.23,2.16,0.69,2.73
		s1.17,0.85,2.15,0.85c0.89,0,1.72-0.17,2.48-0.51c0.76-0.34,1.61-0.82,2.55-1.45c0.93-0.63,1.81-1.22,2.65-1.79
		c1.17-0.71,2.32-1.47,3.44-2.28c1.13-0.81,2-1.45,2.63-1.92C144.37,308.09,144.83,307.75,145.14,307.55z"/>
	<path d="M164.08,309.39l-7.43,6.44c-3.53,3.16-5.9,4.73-7.09,4.73c-1.08,0-2.23-1.27-3.42-3.82c-1.2-2.54-1.79-4.77-1.79-6.68
		c0-1.62,0.24-2.99,0.73-4.12c0.49-1.12,1.33-2.58,2.52-4.37c1.7-2.42,3.32-4.46,4.88-6.14c1.56-1.68,2.93-2.98,4.13-3.9
		c1.2-0.92,2.03-1.39,2.5-1.39c0.75,0,1.48,0.4,2.19,1.19c0.71,0.8,1.06,1.62,1.06,2.47c0,0.54-0.38,1.41-1.15,2.6
		c-0.77,1.19-1.98,2.71-3.63,4.54c-1.66,1.83-3.96,4.03-6.91,6.59l-0.79,2.35c-0.22,0.46-0.33,0.85-0.33,1.19
		c0,0.77,0.38,1.15,1.13,1.15c0.78,0,2.61-1.01,5.49-3.03s6-4.73,9.37-8.15c1.31-1.34,2.39-2.52,3.25-3.54
		c0.86-1.02,1.64-1.98,2.34-2.88c0.7-0.9,1.27-1.57,1.73-2.03c0.46-0.45,0.87-0.7,1.23-0.73c0.7-0.09,1.24,0.21,1.63,0.9
		c0.39,0.68,0.58,1.69,0.58,3.03c0,0.77-0.33,1.73-1,2.88c-0.67,1.15-1.92,3.11-3.75,5.89c-1.84,2.77-3.67,5.65-5.49,8.62
		c-1.82,2.97-3.68,6.32-5.57,10.05c0.08-0.09,0.94-0.94,2.57-2.56c1.63-1.62,3.34-3.31,5.15-5.08c1.81-1.76,3.3-3.18,4.46-4.24
		s2.63-2.31,4.38-3.73v2.86c-3.75,4.12-7.16,8.03-10.2,11.73c-3.05,3.7-5.4,6.65-7.05,8.87c-1.66,2.22-2.62,3.51-2.9,3.88
		c-0.75,1-1.43,1.93-2.02,2.79c-0.6,0.87-1.1,1.54-1.5,2c-0.4,0.47-0.73,0.7-0.98,0.7c-0.58,0-1.11-0.59-1.56-1.77
		c-0.46-1.18-0.69-2.23-0.69-3.14c0-0.83,0.15-1.55,0.46-2.18C152.61,328.8,157.1,320.79,164.08,309.39z"/>
	<path d="M217.66,295.82l12.73-19.41c-2.89,0.11-5.94,0.54-9.14,1.28c-3.2,0.74-5.94,1.53-8.22,2.37c-2.28,0.84-4.32,1.64-6.11,2.39
		c-1.79,0.75-3.08,1.29-3.86,1.6c-0.2,0-0.39-0.07-0.58-0.21c-0.19-0.14-0.29-0.31-0.29-0.51c0-0.23,0.65-1.62,1.94-4.18
		c1.29-2.56,2.82-5.3,4.57-8.23c9.74-3.55,18.33-5.33,25.79-5.33c8.62,0,14.6,1.88,17.94,5.63c1.2,1.31,2.12,2.92,2.77,4.84
		c0.65,1.92,0.98,3.82,0.98,5.69c0,4.27-0.87,8.14-2.61,11.62c-1.74,3.48-4.22,6.5-7.45,9.06c-3.23,2.56-7.02,4.51-11.39,5.86
		c-4.37,1.35-9.15,2.03-14.35,2.03c-0.92,0-2.8-0.17-5.63-0.51l-3.76,7c0.39,0.6,0.58,1.08,0.58,1.45c0,0.88-0.2,1.62-0.58,2.22
		c-0.56,0.85-1.29,1.98-2.21,3.37c-0.92,1.39-1.54,2.32-1.86,2.77c-0.32,0.45-0.68,0.85-1.08,1.19c-0.4,0.34-0.8,0.51-1.19,0.51
		c-0.81,0-1.32-0.25-1.54-0.75c-0.22-0.5-0.33-1.19-0.33-2.07c0-1.25,0.6-3.24,1.81-5.95s3.04-6.32,5.49-10.81
		c-1.31-0.51-2.32-1.18-3.05-2c-0.72-0.82-1.08-1.63-1.08-2.43c0-1.76,0.99-3.4,2.96-4.91C210.87,297.9,213.79,296.7,217.66,295.82z
		 M222,296.97l-2.38,4.09c1.06,0.06,2,0.11,2.82,0.17c0.82,0.06,1.51,0.08,2.06,0.08c4.87,0,9.09-0.67,12.66-2
		c3.57-1.34,6.41-2.99,8.51-4.97c2.1-1.98,3.62-3.96,4.57-5.95c0.95-1.99,1.42-3.65,1.42-4.99c0-1.85-0.72-3.3-2.17-4.35
		c-1.45-1.05-3.53-1.77-6.24-2.15c-2.71-0.38-6.21-0.58-10.49-0.58c0.06,0.31,0.08,0.7,0.08,1.15c0,1.48-0.77,3.43-2.29,5.84
		l-7.26,11.65l5.47-0.64c0.44,0,0.67,0.21,0.67,0.64c0,0.37-0.36,0.63-1.08,0.77L222,296.97z"/>
	<path d="M278.99,307.64v2.86c-1.84,1.71-3.31,2.84-4.42,3.41c-1.11,0.57-2.71,0.8-4.8,0.68c-3.62,4.38-6.8,6.57-9.56,6.57
		c-1.56,0-2.98-0.53-4.26-1.58c-1.28-1.05-2.3-2.49-3.07-4.31c-0.77-1.82-1.15-3.85-1.15-6.1c0-1.82,0.59-3.84,1.77-6.06
		c1.18-2.22,2.71-4.29,4.59-6.21s3.89-3.47,6.03-4.65c2.14-1.18,4.13-1.77,5.97-1.77c1.31,0,2.34,0.21,3.09,0.62
		c0.75,0.41,1.13,0.99,1.13,1.73c0,0.57-0.32,1.22-0.96,1.96c1.06,0.23,1.78,0.6,2.17,1.13c0.39,0.53,0.58,1.49,0.58,2.88
		c0,1.37-0.31,3.09-0.94,5.16c-0.63,2.08-1.48,4.02-2.57,5.84l0.75,0.77h0.63c0.47,0,0.94-0.12,1.4-0.36s0.87-0.5,1.23-0.77
		C276.97,309.18,277.77,308.58,278.99,307.64z M270.4,296.42c-2.31,1.42-4.28,2.71-5.92,3.86c-1.64,1.15-3.03,2.32-4.17,3.5
		c-1.14,1.18-1.91,2.37-2.29,3.56c-0.7,3.19-1.04,4.91-1.04,5.16c0,1.88,1.28,2.82,3.84,2.82c1.2,0,3.2-1.05,6.01-3.16
		c-0.47-1.34-0.71-2.62-0.71-3.84c0-1.79,0.36-3.62,1.08-5.48C267.91,300.98,268.98,298.84,270.4,296.42z"/>
	<path d="M278.49,311.01v-2.77c1.5-1.82,2.64-3.37,3.42-4.65c-0.89-0.31-1.54-0.7-1.94-1.15c-0.4-0.45-0.6-1.14-0.6-2.05
		c0-1.02,0.42-2.32,1.25-3.88c0.83-1.56,1.86-3.03,3.09-4.39c1.22-1.37,2.34-2.25,3.34-2.64c0.39-0.2,0.76-0.3,1.13-0.3
		c0.56,0,0.83,0.27,0.83,0.81c0,0.48-0.43,1.46-1.29,2.94c5.73-0.91,9.35-1.37,10.85-1.37c0.58,0,0.99,0.06,1.21,0.17
		c0.47,0.26,0.86,0.85,1.17,1.79s0.46,1.88,0.46,2.81c0,0.6-0.26,1.24-0.77,1.94c-0.51,0.7-1.4,1.71-2.65,3.05
		c-1.47,1.62-2.71,3.38-3.71,5.29c-1,1.91-1.5,3.34-1.5,4.31c0,1.34,0.81,2,2.42,2c1.7,0,4.65-1.76,8.85-5.29v2.86
		c-2.31,2.47-4.21,4.42-5.72,5.84c-1.5,1.42-2.89,2.55-4.17,3.39c-1.28,0.84-2.42,1.26-3.42,1.26c-1.17,0-2.14-0.55-2.92-1.64
		c-0.78-1.09-1.17-2.68-1.17-4.76c0-1.22,0.31-2.62,0.92-4.18c0.61-1.56,1.51-3.26,2.69-5.1c1.18-1.83,2.51-3.66,3.98-5.48
		c-0.78,0.17-1.66,0.35-2.63,0.53c-0.97,0.19-2,0.38-3.09,0.58c-1.08,0.2-1.92,0.36-2.5,0.47
		C284.28,304.94,281.77,308.14,278.49,311.01z"/>
	<path d="M318.5,285.59h1.79c1.47-2.7,2.81-4.61,4.01-5.74c1.2-1.12,2.56-1.68,4.09-1.68s2.29,0.36,2.29,1.07
		c0,0.34-0.6,1.27-1.79,2.77c-1.2,1.51-2.1,2.77-2.71,3.8c0.95,0.11,1.79,0.21,2.53,0.3c0.74,0.09,1.31,0.16,1.73,0.21
		c-1.59,3.01-3.57,6.1-5.97,9.26c-0.78-0.06-1.43-0.11-1.96-0.15s-1.06-0.09-1.61-0.13c-0.54-0.04-1.2-0.09-1.98-0.15
		c-1.5,2.47-2.76,4.69-3.78,6.63c-1.02,1.95-1.79,3.73-2.34,5.35c-0.54,1.62-0.81,3.16-0.81,4.61c0,1.96,0.76,2.94,2.29,2.94
		c1.06,0,2.44-0.58,4.15-1.73c1.71-1.15,4-2.92,6.86-5.31v2.86c-7.51,8.33-13.06,12.5-16.65,12.5c-1.25,0-2.26-0.5-3.03-1.49
		c-0.77-1-1.15-2.27-1.15-3.84c0-1.05,0.22-2.3,0.65-3.75s1.2-3.64,2.32-6.57c-0.39,0.34-0.76,0.68-1.11,1
		c-0.35,0.33-0.67,0.63-0.96,0.9c-0.29,0.27-0.61,0.55-0.94,0.85c-0.33,0.3-0.67,0.6-1,0.92v-2.94c2.92-2.5,6.45-6.9,10.6-13.18
		c-0.42-0.03-0.81-0.05-1.17-0.06c-0.36-0.01-0.79-0.02-1.29-0.02c-1.64,0-2.87,0.11-3.67,0.34c-0.33,0.09-0.65,0.18-0.94,0.28
		c-0.29,0.1-0.49,0.15-0.6,0.15c-0.11,0-0.17-0.09-0.17-0.26c0-0.94,0.57-2.35,1.71-4.22c0.92-1.59,1.79-2.77,2.61-3.54
		c0.82-0.77,1.82-1.29,3.01-1.56C314.7,285.72,316.36,285.59,318.5,285.59z"/>
	<path d="M348.46,307.72v2.94c-1.67,1.71-2.94,2.94-3.8,3.71c-0.86,0.77-2.04,1.55-3.55,2.35c0,2.59-0.13,4.79-0.38,6.61
		c-0.25,1.82-0.81,3.73-1.67,5.74s-2.2,4.2-4,6.59c-1.78,2.36-3.53,4.17-5.26,5.44c-1.72,1.27-3.07,1.9-4.05,1.9
		c-1.08,0-2.09-0.91-3-2.73c-0.92-1.82-1.38-4.08-1.38-6.78c0-2.59,0.43-5.32,1.29-8.19c0.86-2.87,2.2-6.58,4.01-11.13
		c-1.36-1.82-2.04-3.63-2.04-5.42c0-1.45,0.36-2.56,1.08-3.33c0.72-0.77,1.75-1.46,3.09-2.09c0.97-1.56,1.9-2.89,2.77-3.99
		c0.88-1.09,2.07-2.55,3.57-4.37c2.89-7.28,6.29-14.39,10.18-21.33c1.08-1.93,1.86-3.23,2.34-3.9c0.47-0.67,0.97-1,1.5-1
		c0.47,0,0.89,0.36,1.25,1.07c0.36,0.71,0.54,1.64,0.54,2.77c0,1.39-0.15,2.67-0.44,3.84c-0.29,1.17-0.71,2.34-1.25,3.52
		c-0.54,1.18-1.29,2.6-2.25,4.24c-0.96,1.65-1.55,2.67-1.77,3.07c-1.39,2.5-2.96,5.28-4.71,8.32c-1.75,3.04-3.14,5.45-4.15,7.21
		c-1.02,1.76-1.75,3.09-2.19,3.97c1.5,1.34,2.69,2.49,3.57,3.46c0.88,0.97,1.63,2.12,2.27,3.46c0.95-0.37,1.81-0.81,2.59-1.32
		c0.78-0.51,1.7-1.22,2.75-2.11C346.43,309.32,347.46,308.49,348.46,307.72z M335.99,319.16l-0.08-0.9
		c-0.78,0.08-1.4,0.11-1.88,0.06c-0.47-0.04-1.02-0.16-1.65-0.36c-0.63-0.2-1.11-0.38-1.46-0.55c-0.35-0.17-0.73-0.34-1.15-0.51
		c-2.11,5.29-3.17,9.68-3.17,13.18c0,1.73,0.26,3.21,0.77,4.44c0.51,1.22,1.12,1.83,1.82,1.83c0.72,0,1.63-0.65,2.73-1.96
		c1.1-1.31,2.05-3.24,2.86-5.8C335.58,326.02,335.99,322.88,335.99,319.16z"/>
	<path d="M375.21,307.64v2.86c-1.84,1.71-3.31,2.84-4.42,3.41c-1.11,0.57-2.71,0.8-4.8,0.68c-3.62,4.38-6.8,6.57-9.55,6.57
		c-1.56,0-2.98-0.53-4.26-1.58c-1.28-1.05-2.3-2.49-3.07-4.31s-1.15-3.85-1.15-6.1c0-1.82,0.59-3.84,1.77-6.06
		c1.18-2.22,2.71-4.29,4.59-6.21s3.89-3.47,6.03-4.65c2.14-1.18,4.13-1.77,5.97-1.77c1.31,0,2.34,0.21,3.09,0.62
		c0.75,0.41,1.13,0.99,1.13,1.73c0,0.57-0.32,1.22-0.96,1.96c1.06,0.23,1.78,0.6,2.17,1.13c0.39,0.53,0.58,1.49,0.58,2.88
		c0,1.37-0.31,3.09-0.94,5.16s-1.48,4.02-2.57,5.84l0.75,0.77h0.63c0.47,0,0.94-0.12,1.4-0.36s0.87-0.5,1.23-0.77
		C373.19,309.18,373.98,308.58,375.21,307.64z M366.61,296.42c-2.31,1.42-4.28,2.71-5.92,3.86c-1.64,1.15-3.03,2.32-4.17,3.5
		c-1.14,1.18-1.91,2.37-2.29,3.56c-0.7,3.19-1.04,4.91-1.04,5.16c0,1.88,1.28,2.82,3.84,2.82c1.2,0,3.2-1.05,6.01-3.16
		c-0.47-1.34-0.71-2.62-0.71-3.84c0-1.79,0.36-3.62,1.08-5.48C364.12,300.98,365.19,298.84,366.61,296.42z"/>
	<path d="M395.07,307.25v3.16c-5.81,7.88-10.54,11.82-14.19,11.82c-1.98,0-3.53-1.1-4.65-3.31c-1.13-2.2-1.69-5.1-1.69-8.68
		c0-2.9,0.67-6.35,2-10.34c1.33-4,3.12-8.05,5.36-12.16c2.24-4.11,4.56-7.69,6.97-10.75c2.41-3.06,4.64-5.2,6.7-6.42
		c0.83-0.51,1.49-0.77,1.96-0.77c0.58,0,0.97,0.26,1.17,0.79c0.19,0.53,0.29,1.43,0.29,2.71c0,3.95-1.57,8.81-4.71,14.57
		c-3.14,5.76-7.53,11.64-13.14,17.64c-0.28,1.48-0.42,2.62-0.42,3.41c0,1.82,0.38,3.3,1.15,4.44c0.76,1.14,1.83,1.71,3.19,1.71
		c0.7,0,1.45-0.28,2.25-0.83c0.81-0.55,1.66-1.24,2.55-2.07C390.74,311.34,392.48,309.7,395.07,307.25z M382.59,299.58
		c1.45-1.45,2.84-3.1,4.19-4.95c1.35-1.85,2.62-3.82,3.82-5.93c1.2-2.1,2.13-4,2.82-5.67c0.68-1.68,1.02-2.94,1.02-3.8
		c0-0.65-0.22-0.98-0.67-0.98c-0.17,0-0.49,0.16-0.96,0.47c-1.7,1.42-3.6,4.2-5.72,8.34C384.98,291.19,383.48,295.37,382.59,299.58z
		"/>
	<path d="M414.64,307.72v3.11c-2.7,3.56-5.21,6.24-7.55,8.04c-2.34,1.81-4.33,2.71-5.97,2.71c-2.28,0-3.98-1.22-5.09-3.67
		c-1.11-2.45-1.67-5.12-1.67-8.02c0-1.11,0.11-2.17,0.33-3.18c0.22-1.01,0.49-1.84,0.79-2.5c0.31-0.65,0.88-1.68,1.71-3.07
		c3.95-6.28,7.57-9.43,10.85-9.43c1.7,0,2.54,0.67,2.54,2c0,0.91-0.55,2.33-1.65,4.27c-1.1,1.93-2.08,3.31-2.94,4.14
		c-2.42,2.39-4,4.05-4.74,4.99c-0.74,0.94-1.11,2-1.11,3.2c0,1.02,0.38,1.88,1.13,2.56c0.75,0.68,1.72,1.02,2.92,1.02
		c1.31,0,2.75-0.49,4.32-1.47S412.13,309.89,414.64,307.72z M411.8,288.66c-0.7,0-1.36-0.27-1.98-0.81
		c-0.63-0.54-0.94-1.22-0.94-2.05c0-1.25,0.58-2.64,1.75-4.18c1.17-1.54,2.38-2.3,3.63-2.3c0.83,0,1.53,0.26,2.09,0.79
		c0.56,0.53,0.83,1.29,0.83,2.28c0,1.22-0.57,2.57-1.71,4.05C414.33,287.92,413.11,288.66,411.8,288.66z"/>
	<path d="M441.09,307.64v2.86c-1.84,1.71-3.31,2.84-4.42,3.41c-1.11,0.57-2.71,0.8-4.8,0.68c-3.62,4.38-6.8,6.57-9.55,6.57
		c-1.56,0-2.98-0.53-4.26-1.58c-1.28-1.05-2.3-2.49-3.07-4.31s-1.15-3.85-1.15-6.1c0-1.82,0.59-3.84,1.77-6.06
		c1.18-2.22,2.71-4.29,4.59-6.21s3.89-3.47,6.03-4.65c2.14-1.18,4.13-1.77,5.97-1.77c1.31,0,2.34,0.21,3.09,0.62
		c0.75,0.41,1.13,0.99,1.13,1.73c0,0.57-0.32,1.22-0.96,1.96c1.06,0.23,1.78,0.6,2.17,1.13c0.39,0.53,0.58,1.49,0.58,2.88
		c0,1.37-0.31,3.09-0.94,5.16s-1.48,4.02-2.57,5.84l0.75,0.77h0.63c0.47,0,0.94-0.12,1.4-0.36s0.87-0.5,1.23-0.77
		C439.07,309.18,439.87,308.58,441.09,307.64z M432.5,296.42c-2.31,1.42-4.28,2.71-5.92,3.86c-1.64,1.15-3.03,2.32-4.17,3.5
		c-1.14,1.18-1.91,2.37-2.29,3.56c-0.7,3.19-1.04,4.91-1.04,5.16c0,1.88,1.28,2.82,3.84,2.82c1.2,0,3.2-1.05,6.01-3.16
		c-0.47-1.34-0.71-2.62-0.71-3.84c0-1.79,0.36-3.62,1.08-5.48C430,300.98,431.08,298.84,432.5,296.42z"/>
</g>
</svg>
